<svg aria-hidden="true" style="width:0;height:0;position:absolute;overflow:hidden" xmlns="http://www.w3.org/2000/svg"><defs><symbol id="spinner" viewBox="0 0 35 32"><path d="M24.741.04a9.685 9.685 0 0 0-4.66 1.593 9.934 9.934 0 0 0-2.754 2.747c-.306.46-.719 1.23-.895 1.668-.047.115-.097.209-.111.209s-.079-.086-.14-.191c-.259-.417-.762-1.039-1.204-1.481-1.33-1.334-2.977-2.172-4.89-2.488-.313-.05-.593-.065-1.33-.065-.813 0-.996.011-1.395.083-2.337.421-4.293 1.625-5.674 3.502C.282 7.526-.282 9.993.149 12.369c.241 1.348.82 2.636 1.697 3.793.5.654 1.373 1.46 2.093 1.934.18.115.327.216.331.219s-.097.115-.223.248a2.87 2.87 0 0 0-.618.996l-.101.27-.011 4.922c-.007 4.804-.007 4.933.061 5.206.198.773.68 1.366 1.413 1.737.629.316-.41.288 10.761.288 9.557 0 9.895-.004 10.139-.068.989-.266 1.729-.989 1.981-1.942a4.64 4.64 0 0 0 .083-.676l.022-.457 6.22 2.884.252.004c.385.004.647-.165.805-.518.072-.162.075-.205.075-5.792 0-6.285.018-5.821-.259-6.102-.198-.201-.399-.273-.687-.248-.198.018-.561.176-3.297 1.442-1.69.784-3.081 1.424-3.096 1.424s-.032-.457-.04-1.018c-.014-.974-.018-1.025-.108-1.294l-.093-.277.097-.022a10.686 10.686 0 0 0 2.966-1.23c1.212-.748 2.409-1.949 3.168-3.171.262-.424.69-1.305.863-1.776a9.956 9.956 0 0 0 .557-4.192c-.291-3.214-2.071-6.005-4.872-7.64-1.65-.964-3.664-1.42-5.587-1.273zm1.344 2.107c.363.09.762.32 1.043.604.288.288.449.543.586.924.09.241.097.306.093.766 0 .439-.014.543-.097.82a3.837 3.837 0 0 1-.884 1.55c-.561.586-1.179.791-1.809.597-.633-.194-1.291-.902-1.636-1.762-.191-.471-.241-.73-.241-1.222 0-.396.011-.482.093-.723a2.36 2.36 0 0 1 .582-.938 2.334 2.334 0 0 1 2.269-.615zM9.33 3.919a2.133 2.133 0 0 1 1.568 2.373c-.151.964-.759 1.906-1.46 2.251-.273.137-.298.14-.647.14-.338 0-.378-.007-.604-.119-.816-.403-1.499-1.596-1.499-2.618 0-.324.058-.568.219-.899A2.09 2.09 0 0 1 9.33 3.918zm11.571 3.614c1.266.367 2.168 1.158 2.33 2.035.165.902-.751 1.931-2.111 2.369-.827.266-1.51.237-2.136-.093a2.45 2.45 0 0 1-1.136-1.355c-.083-.252-.097-.356-.101-.726 0-.388.011-.46.108-.741.288-.813.91-1.366 1.758-1.564.32-.075.892-.043 1.287.075zm10.538.003c.766.198 1.42.841 1.658 1.632.09.302.108.795.04 1.115a2.51 2.51 0 0 1-.823 1.355c-.744.629-1.845.687-2.959.158-1.071-.511-1.668-1.23-1.668-2.003 0-.334.086-.597.309-.924.475-.694 1.481-1.251 2.549-1.406.18-.025.669.014.895.072zM4.527 8.719c.942.198 1.827.823 2.154 1.517.083.18.097.255.097.55 0 .316-.011.36-.119.579-.5.996-2.132 1.729-3.222 1.449a2.186 2.186 0 0 1-1.535-1.56 2.599 2.599 0 0 1 0-.971 2.18 2.18 0 0 1 1.517-1.56c.255-.068.791-.072 1.107-.004zm9.762.083a2.194 2.194 0 0 1 1.323 1.33c.119.349.119.996 0 1.345-.158.46-.503.888-.913 1.136-.338.201-.579.27-1.021.288-.514.018-.884-.068-1.435-.334-.658-.32-1.1-.712-1.334-1.194-.093-.191-.104-.245-.104-.586 0-.356.007-.392.115-.6.342-.651 1.179-1.219 2.114-1.435.327-.075.985-.047 1.255.05zm11.829 3.383c1.064.525 1.877 2.258 1.625 3.455a2.404 2.404 0 0 1-1.733 1.798 2.435 2.435 0 0 1-1.661-.187c-.334-.165-.841-.672-1.007-1.007a2.56 2.56 0 0 1-.259-1.104c.004-1.14.762-2.495 1.654-2.952.284-.147.435-.18.762-.169.284.011.338.025.618.165zm-17.039.633c.302.079.539.219.791.471.665.654 1.089 1.755.985 2.567a1.99 1.99 0 0 1-.651 1.276 2.093 2.093 0 0 1-2.927-.036c-.457-.453-.651-.964-.615-1.618.025-.446.122-.795.349-1.258.291-.604.672-1.039 1.118-1.273.345-.187.597-.219.949-.129zm8.287 2.445c.557.827 1.489 1.809 2.182 2.301.086.061.155.119.155.133 0 .018-1.237.029-2.751.029s-2.751-.011-2.751-.029c0-.014.079-.083.173-.151.309-.23 1.064-1.018 1.391-1.456.37-.489.615-.884.867-1.391l.173-.349.183.313c.101.173.27.442.378.6z"/></symbol></defs></svg>