<svg aria-hidden="true" style="position: absolute; width: 0; height: 0; overflow: hidden;" version="1.1" xmlns="http://www.w3.org/2000/svg" xmlns:xlink="http://www.w3.org/1999/xlink">
<defs>
<symbol id="spinner" viewBox="0 0 35 32">
<path d="M24.741 0.040c-1.69 0.129-3.236 0.658-4.66 1.593-1.071 0.705-2.031 1.665-2.754 2.747-0.306 0.46-0.719 1.23-0.895 1.668-0.047 0.115-0.097 0.209-0.111 0.209s-0.079-0.086-0.14-0.191c-0.259-0.417-0.762-1.039-1.204-1.481-1.33-1.334-2.977-2.172-4.89-2.488-0.313-0.050-0.593-0.065-1.33-0.065-0.813 0-0.996 0.011-1.395 0.083-2.337 0.421-4.293 1.625-5.674 3.502-1.406 1.909-1.97 4.376-1.539 6.752 0.241 1.348 0.82 2.636 1.697 3.793 0.5 0.654 1.373 1.46 2.093 1.934 0.18 0.115 0.327 0.216 0.331 0.219s-0.097 0.115-0.223 0.248c-0.27 0.284-0.482 0.622-0.618 0.996l-0.101 0.27-0.011 4.922c-0.007 4.804-0.007 4.933 0.061 5.206 0.198 0.773 0.68 1.366 1.413 1.737 0.629 0.316-0.41 0.288 10.761 0.288 9.557 0 9.895-0.004 10.139-0.068 0.989-0.266 1.729-0.989 1.981-1.942 0.032-0.122 0.068-0.424 0.083-0.676l0.022-0.457 6.22 2.884 0.252 0.004c0.385 0.004 0.647-0.165 0.805-0.518 0.072-0.162 0.075-0.205 0.075-5.792 0-6.285 0.018-5.821-0.259-6.102-0.198-0.201-0.399-0.273-0.687-0.248-0.198 0.018-0.561 0.176-3.297 1.442-1.69 0.784-3.081 1.424-3.096 1.424s-0.032-0.457-0.040-1.018c-0.014-0.974-0.018-1.025-0.108-1.294l-0.093-0.277 0.097-0.022c0.992-0.237 2.107-0.698 2.966-1.23 1.212-0.748 2.409-1.949 3.168-3.171 0.262-0.424 0.69-1.305 0.863-1.776 0.478-1.298 0.68-2.819 0.557-4.192-0.291-3.214-2.071-6.005-4.872-7.64-1.65-0.964-3.664-1.42-5.587-1.273zM26.085 2.147c0.363 0.090 0.762 0.32 1.043 0.604 0.288 0.288 0.449 0.543 0.586 0.924 0.090 0.241 0.097 0.306 0.093 0.766 0 0.439-0.014 0.543-0.097 0.82-0.187 0.611-0.485 1.133-0.884 1.55-0.561 0.586-1.179 0.791-1.809 0.597-0.633-0.194-1.291-0.902-1.636-1.762-0.191-0.471-0.241-0.73-0.241-1.222 0-0.396 0.011-0.482 0.093-0.723 0.137-0.385 0.316-0.676 0.582-0.938 0.611-0.604 1.431-0.827 2.269-0.615zM9.33 3.919c1.046 0.266 1.729 1.305 1.568 2.373-0.151 0.964-0.759 1.906-1.46 2.251-0.273 0.137-0.298 0.14-0.647 0.14-0.338 0-0.378-0.007-0.604-0.119-0.816-0.403-1.499-1.596-1.499-2.618 0-0.324 0.058-0.568 0.219-0.899 0.435-0.913 1.438-1.381 2.423-1.129zM20.901 7.533c1.266 0.367 2.168 1.158 2.33 2.035 0.165 0.902-0.751 1.931-2.111 2.369-0.827 0.266-1.51 0.237-2.136-0.093-0.511-0.266-0.953-0.795-1.136-1.355-0.083-0.252-0.097-0.356-0.101-0.726 0-0.388 0.011-0.46 0.108-0.741 0.288-0.813 0.91-1.366 1.758-1.564 0.32-0.075 0.892-0.043 1.287 0.075zM31.439 7.536c0.766 0.198 1.42 0.841 1.658 1.632 0.090 0.302 0.108 0.795 0.040 1.115-0.104 0.503-0.41 1.003-0.823 1.355-0.744 0.629-1.845 0.687-2.959 0.158-1.071-0.511-1.668-1.23-1.668-2.003 0-0.334 0.086-0.597 0.309-0.924 0.475-0.694 1.481-1.251 2.549-1.406 0.18-0.025 0.669 0.014 0.895 0.072zM4.527 8.719c0.942 0.198 1.827 0.823 2.154 1.517 0.083 0.18 0.097 0.255 0.097 0.55 0 0.316-0.011 0.36-0.119 0.579-0.5 0.996-2.132 1.729-3.222 1.449-0.737-0.191-1.359-0.823-1.535-1.56-0.061-0.252-0.061-0.719 0-0.971 0.176-0.737 0.784-1.363 1.517-1.56 0.255-0.068 0.791-0.072 1.107-0.004zM14.289 8.802c0.622 0.227 1.111 0.719 1.323 1.33 0.119 0.349 0.119 0.996 0 1.345-0.158 0.46-0.503 0.888-0.913 1.136-0.338 0.201-0.579 0.27-1.021 0.288-0.514 0.018-0.884-0.068-1.435-0.334-0.658-0.32-1.1-0.712-1.334-1.194-0.093-0.191-0.104-0.245-0.104-0.586 0-0.356 0.007-0.392 0.115-0.6 0.342-0.651 1.179-1.219 2.114-1.435 0.327-0.075 0.985-0.047 1.255 0.050zM26.118 12.185c1.064 0.525 1.877 2.258 1.625 3.455-0.18 0.859-0.874 1.578-1.733 1.798-0.536 0.137-1.133 0.072-1.661-0.187-0.334-0.165-0.841-0.672-1.007-1.007-0.169-0.345-0.259-0.737-0.259-1.104 0.004-1.14 0.762-2.495 1.654-2.952 0.284-0.147 0.435-0.18 0.762-0.169 0.284 0.011 0.338 0.025 0.618 0.165zM9.079 12.818c0.302 0.079 0.539 0.219 0.791 0.471 0.665 0.654 1.089 1.755 0.985 2.567-0.065 0.518-0.266 0.913-0.651 1.276-0.831 0.787-2.114 0.769-2.927-0.036-0.457-0.453-0.651-0.964-0.615-1.618 0.025-0.446 0.122-0.795 0.349-1.258 0.291-0.604 0.672-1.039 1.118-1.273 0.345-0.187 0.597-0.219 0.949-0.129zM17.366 15.263c0.557 0.827 1.489 1.809 2.182 2.301 0.086 0.061 0.155 0.119 0.155 0.133 0 0.018-1.237 0.029-2.751 0.029s-2.751-0.011-2.751-0.029c0-0.014 0.079-0.083 0.173-0.151 0.309-0.23 1.064-1.018 1.391-1.456 0.37-0.489 0.615-0.884 0.867-1.391l0.173-0.349 0.183 0.313c0.101 0.173 0.27 0.442 0.378 0.6z"></path>
</symbol>
</defs>
</svg>
